<?xml version="1.0" encoding="utf-8"?>
<!-- Generator: Adobe Illustrator 23.0.1, SVG Export Plug-In . SVG Version: 6.00 Build 0)  -->
<svg version="1.1" id="Layer_1" xmlns="http://www.w3.org/2000/svg" xmlns:xlink="http://www.w3.org/1999/xlink" x="0px" y="0px"
	 viewBox="0 0 100 100" style="enable-background:new 0 0 100 100;" xml:space="preserve">
<style type="text/css">
	.st0{display:none;fill:#1B263B;}
	.st1{fill:#1B263B;}
</style>
<path class="st0" d="M82.99,18.17H16.18c-4.26,0-7.71,3.45-7.71,7.71v46.25c0,4.26,3.45,7.71,7.71,7.71h66.81
	c4.26,0,7.71-3.45,7.71-7.71V25.88C90.7,21.62,87.24,18.17,82.99,18.17z M82.99,25.88v6.55c-3.6,2.93-9.34,7.49-21.61,17.1
	c-2.7,2.13-8.06,7.24-11.79,7.18c-3.73,0.06-9.09-5.05-11.79-7.18c-12.27-9.61-18.01-14.17-21.61-17.1v-6.55H82.99z M16.18,72.13
	V42.33c3.68,2.93,8.9,7.04,16.85,13.27c3.51,2.76,9.66,8.86,16.55,8.83c6.86,0.04,12.93-5.97,16.55-8.82
	c7.95-6.23,13.17-10.34,16.85-13.27v29.81H16.18z"/>
<path class="st1" d="M67.87,8.53H31.59c-4.29,0-7.77,3.48-7.77,7.77v67.38c0,4.29,3.48,7.77,7.77,7.77h36.28
	c4.29,0,7.77-3.48,7.77-7.77V16.31C75.65,12.02,72.16,8.53,67.87,8.53z M49.73,86.28c-2.87,0-5.18-2.32-5.18-5.18
	s2.32-5.18,5.18-5.18c2.87,0,5.18,2.32,5.18,5.18S52.6,86.28,49.73,86.28z M67.87,68.79c0,1.07-0.87,1.94-1.94,1.94h-32.4
	c-1.07,0-1.94-0.87-1.94-1.94V18.25c0-1.07,0.87-1.94,1.94-1.94h32.4c1.07,0,1.94,0.87,1.94,1.94V68.79z"/>
</svg>
